<svg xmlns="http://www.w3.org/2000/svg" width="231" height="103" fill="none"><path fill="url(#a)" fill-opacity=".6" d="M189.5 0h-19v103h19V0Z"/><path fill="url(#b)" fill-opacity=".6" d="M160.5 21h-19v82h19V21Z"/><path fill="url(#c)" fill-opacity=".6" d="M74.5 37h-20v66h20V37Z"/><path fill="url(#d)" fill-opacity=".6" d="M131.5 36h-19v67h19V36Z"/><path fill="url(#e)" fill-opacity=".6" d="M45.5 7h-20v96h20V7Z"/><path fill="url(#f)" fill-opacity=".6" d="M103.5 52h-20v51h20V52Z"/><g filter="url(#g)"><circle cx="181.5" cy="58" r="2" fill="#285CEC"/></g><g filter="url(#h)"><circle cx="153.258" cy="41.077" r="2" fill="#285CEC"/></g><g filter="url(#i)"><circle cx="123.5" cy="76" r="2" fill="#285CEC"/></g><g filter="url(#j)"><circle cx="94.232" cy="85.648" r="2" fill="#285CEC"/></g><g filter="url(#k)"><circle cx="64.117" cy="57.942" r="2" fill="#285CEC"/></g><g filter="url(#l)"><circle cx="36.5" cy="45" r="2" fill="#285CEC"/></g><g filter="url(#m)"><circle cx="6.5" cy="65" r="2" fill="#285CEC"/></g><g filter="url(#n)"><circle cx="217" cy="27.5" r="3.5" fill="#34B1FD"/></g><path fill="#285CEC" d="m36.218 45.1.212-.452a.5.5 0 0 0-.487.035l.275.418Zm28.308 13.251.339-.368a.498.498 0 0 0-.127-.085l-.212.453ZM94.04 85.455l-.338.368a.5.5 0 0 0 .496.106l-.158-.474Zm28.911-9.637.158.475a.5.5 0 0 0 .224-.152l-.382-.323Zm29.513-34.934.258-.428a.5.5 0 0 0-.64.106l.382.322ZM181.5 58.351l-.258.429a.5.5 0 0 0 .582-.048l-.324-.38ZM219.5 26l-5.679 1.043 3.743 4.396L219.5 26ZM6.275 65.418l30.218-19.9-.55-.835-30.218 19.9.55.835Zm29.731-19.865 28.308 13.251.424-.906-28.308-13.25-.424.905ZM64.188 58.72l29.513 27.104.677-.736-29.513-27.104-.677.736Zm30.01 27.21 28.91-9.636-.316-.95-28.91 9.638.315.948Zm29.134-9.788 29.513-34.934-.764-.645-29.513 34.933.764.646Zm28.873-34.828 29.037 17.467.515-.857-29.036-17.467-.516.857Zm29.619 17.419 34.573-29.434-.648-.762-34.573 29.435.648.761Z"/><defs><filter id="g" width="12" height="12" x="175.5" y="52" color-interpolation-filters="sRGB" filterUnits="userSpaceOnUse"><feFlood flood-opacity="0" result="BackgroundImageFix"/><feColorMatrix in="SourceAlpha" result="hardAlpha" values="0 0 0 0 0 0 0 0 0 0 0 0 0 0 0 0 0 0 127 0"/><feOffset/><feGaussianBlur stdDeviation="2"/><feComposite in2="hardAlpha" operator="out"/><feColorMatrix values="0 0 0 0 0.203922 0 0 0 0 0.694118 0 0 0 0 0.992157 0 0 0 1 0"/><feBlend in2="BackgroundImageFix" result="effect1_dropShadow_3899_10779"/><feBlend in="SourceGraphic" in2="effect1_dropShadow_3899_10779" result="shape"/></filter><filter id="h" width="12" height="12" x="147.258" y="35.077" color-interpolation-filters="sRGB" filterUnits="userSpaceOnUse"><feFlood flood-opacity="0" result="BackgroundImageFix"/><feColorMatrix in="SourceAlpha" result="hardAlpha" values="0 0 0 0 0 0 0 0 0 0 0 0 0 0 0 0 0 0 127 0"/><feOffset/><feGaussianBlur stdDeviation="2"/><feComposite in2="hardAlpha" operator="out"/><feColorMatrix values="0 0 0 0 0.203922 0 0 0 0 0.694118 0 0 0 0 0.992157 0 0 0 1 0"/><feBlend in2="BackgroundImageFix" result="effect1_dropShadow_3899_10779"/><feBlend in="SourceGraphic" in2="effect1_dropShadow_3899_10779" result="shape"/></filter><filter id="i" width="12" height="12" x="117.5" y="70" color-interpolation-filters="sRGB" filterUnits="userSpaceOnUse"><feFlood flood-opacity="0" result="BackgroundImageFix"/><feColorMatrix in="SourceAlpha" result="hardAlpha" values="0 0 0 0 0 0 0 0 0 0 0 0 0 0 0 0 0 0 127 0"/><feOffset/><feGaussianBlur stdDeviation="2"/><feComposite in2="hardAlpha" operator="out"/><feColorMatrix values="0 0 0 0 0.203922 0 0 0 0 0.694118 0 0 0 0 0.992157 0 0 0 1 0"/><feBlend in2="BackgroundImageFix" result="effect1_dropShadow_3899_10779"/><feBlend in="SourceGraphic" in2="effect1_dropShadow_3899_10779" result="shape"/></filter><filter id="j" width="12" height="12" x="88.232" y="79.648" color-interpolation-filters="sRGB" filterUnits="userSpaceOnUse"><feFlood flood-opacity="0" result="BackgroundImageFix"/><feColorMatrix in="SourceAlpha" result="hardAlpha" values="0 0 0 0 0 0 0 0 0 0 0 0 0 0 0 0 0 0 127 0"/><feOffset/><feGaussianBlur stdDeviation="2"/><feComposite in2="hardAlpha" operator="out"/><feColorMatrix values="0 0 0 0 0.203922 0 0 0 0 0.694118 0 0 0 0 0.992157 0 0 0 1 0"/><feBlend in2="BackgroundImageFix" result="effect1_dropShadow_3899_10779"/><feBlend in="SourceGraphic" in2="effect1_dropShadow_3899_10779" result="shape"/></filter><filter id="k" width="12" height="12" x="58.117" y="51.942" color-interpolation-filters="sRGB" filterUnits="userSpaceOnUse"><feFlood flood-opacity="0" result="BackgroundImageFix"/><feColorMatrix in="SourceAlpha" result="hardAlpha" values="0 0 0 0 0 0 0 0 0 0 0 0 0 0 0 0 0 0 127 0"/><feOffset/><feGaussianBlur stdDeviation="2"/><feComposite in2="hardAlpha" operator="out"/><feColorMatrix values="0 0 0 0 0.203922 0 0 0 0 0.694118 0 0 0 0 0.992157 0 0 0 1 0"/><feBlend in2="BackgroundImageFix" result="effect1_dropShadow_3899_10779"/><feBlend in="SourceGraphic" in2="effect1_dropShadow_3899_10779" result="shape"/></filter><filter id="l" width="12" height="12" x="30.5" y="39" color-interpolation-filters="sRGB" filterUnits="userSpaceOnUse"><feFlood flood-opacity="0" result="BackgroundImageFix"/><feColorMatrix in="SourceAlpha" result="hardAlpha" values="0 0 0 0 0 0 0 0 0 0 0 0 0 0 0 0 0 0 127 0"/><feOffset/><feGaussianBlur stdDeviation="2"/><feComposite in2="hardAlpha" operator="out"/><feColorMatrix values="0 0 0 0 0.203922 0 0 0 0 0.694118 0 0 0 0 0.992157 0 0 0 1 0"/><feBlend in2="BackgroundImageFix" result="effect1_dropShadow_3899_10779"/><feBlend in="SourceGraphic" in2="effect1_dropShadow_3899_10779" result="shape"/></filter><filter id="m" width="12" height="12" x=".5" y="59" color-interpolation-filters="sRGB" filterUnits="userSpaceOnUse"><feFlood flood-opacity="0" result="BackgroundImageFix"/><feColorMatrix in="SourceAlpha" result="hardAlpha" values="0 0 0 0 0 0 0 0 0 0 0 0 0 0 0 0 0 0 127 0"/><feOffset/><feGaussianBlur stdDeviation="2"/><feComposite in2="hardAlpha" operator="out"/><feColorMatrix values="0 0 0 0 0.203922 0 0 0 0 0.694118 0 0 0 0 0.992157 0 0 0 1 0"/><feBlend in2="BackgroundImageFix" result="effect1_dropShadow_3899_10779"/><feBlend in="SourceGraphic" in2="effect1_dropShadow_3899_10779" result="shape"/></filter><filter id="n" width="27" height="27" x="203.5" y="14" color-interpolation-filters="sRGB" filterUnits="userSpaceOnUse"><feFlood flood-opacity="0" result="BackgroundImageFix"/><feBlend in="SourceGraphic" in2="BackgroundImageFix" result="shape"/><feGaussianBlur result="effect1_foregroundBlur_3899_10779" stdDeviation="5"/></filter><linearGradient id="a" x1="180" x2="180" y1="103" y2="0" gradientUnits="userSpaceOnUse"><stop stop-color="#DEEBF9" stop-opacity=".04"/><stop offset="1" stop-color="#D1E5F9"/></linearGradient><linearGradient id="b" x1="151" x2="151" y1="103" y2="21" gradientUnits="userSpaceOnUse"><stop stop-color="#DEEBF9" stop-opacity=".04"/><stop offset="1" stop-color="#D1E5F9"/></linearGradient><linearGradient id="c" x1="64.5" x2="64.5" y1="103" y2="37" gradientUnits="userSpaceOnUse"><stop stop-color="#DEEBF9" stop-opacity=".04"/><stop offset="1" stop-color="#D1E5F9"/></linearGradient><linearGradient id="d" x1="122" x2="122" y1="103" y2="36" gradientUnits="userSpaceOnUse"><stop stop-color="#DEEBF9" stop-opacity=".04"/><stop offset="1" stop-color="#D1E5F9"/></linearGradient><linearGradient id="e" x1="35.5" x2="35.5" y1="103" y2="7" gradientUnits="userSpaceOnUse"><stop stop-color="#DEEBF9" stop-opacity=".04"/><stop offset="1" stop-color="#D1E5F9"/></linearGradient><linearGradient id="f" x1="93.5" x2="93.5" y1="103" y2="52" gradientUnits="userSpaceOnUse"><stop stop-color="#DEEBF9" stop-opacity=".04"/><stop offset="1" stop-color="#D1E5F9"/></linearGradient></defs></svg>