<svg xmlns="http://www.w3.org/2000/svg" width="160" height="92" fill="none"><g clip-path="url(#a)"><path stroke="#fff" stroke-linecap="round" stroke-linejoin="round" stroke-width="2" d="m109.168 42.322-85.24 26.856-8.792-4.008M15.832 79.178l86.792-27.392M129.304 50.818 43.664 77.85M116.36 62.442l-80.08 25.56M145.048 72.898l-14.952-7.432-66.664 21.04M13.28 65.466c1.149 0 2.08-.67 2.08-1.496s-.931-1.496-2.08-1.496-2.08.67-2.08 1.496.931 1.496 2.08 1.496ZM41.376 80.154c1.149 0 2.08-.67 2.08-1.496s-.931-1.496-2.08-1.496-2.08.67-2.08 1.496.931 1.496 2.08 1.496ZM118.44 63.538c1.149 0 2.08-.67 2.08-1.496s-.931-1.496-2.08-1.496-2.08.67-2.08 1.496.931 1.496 2.08 1.496ZM131.576 51.522c1.149 0 2.08-.67 2.08-1.496s-.931-1.496-2.08-1.496-2.08.67-2.08 1.496.931 1.496 2.08 1.496ZM110.976 42.754c1.149 0 2.08-.67 2.08-1.496s-.931-1.496-2.08-1.496-2.08.67-2.08 1.496.931 1.496 2.08 1.496ZM104.24 52.346c1.149 0 2.08-.67 2.08-1.496s-.931-1.496-2.08-1.496-2.08.67-2.08 1.496.931 1.496 2.08 1.496Z"/><path stroke="#fff" stroke-linecap="round" stroke-linejoin="round" stroke-width="2" d="M146.328 75.562c1.149 0 2.08-.67 2.08-1.496s-.931-1.496-2.08-1.496-2.08.67-2.08 1.496.931 1.496 2.08 1.496ZM34.2 90.394c1.149 0 2.08-.67 2.08-1.496s-.931-1.496-2.08-1.496-2.08.67-2.08 1.496.931 1.496 2.08 1.496ZM13.28 81.41c1.149 0 2.08-.67 2.08-1.496s-.931-1.496-2.08-1.496-2.08.67-2.08 1.496.931 1.496 2.08 1.496ZM61.352 88.898c1.149 0 2.08-.67 2.08-1.496s-.931-1.496-2.08-1.496-2.08.67-2.08 1.496.931 1.496 2.08 1.496Z"/><path fill="#0A76DB" stroke="#fff" stroke-linecap="round" stroke-linejoin="round" stroke-width="2" d="M102.152 71.61c1.064-1.184 1.536-2.416 1.376-3.56v-6L37.56 56.842v6.168h.016c-.144 1.736.928 3.352 3.288 4.488l35.768 17.32c5.072 2.456 14.152 1.784 20.296-1.504 3.328-1.784 5.104-3.968 5.224-5.984h.008v-5.712l-.008-.008Z"/><path fill="#0A76DB" d="M99.864 66.77c4.584-2.896 4.992-6.688.736-8.752-1.92-.928-4.48-1.352-7.216-1.32 3.056-3.736 2.248-7.72-2.768-10.144-7.008-3.392-19.56-2.464-28.04 2.08a.06.06 0 0 0-.032.016c-5.152-2.168-13.824-1.44-19.752 1.736-6.136 3.288-7.008 7.944-1.936 10.392l35.768 17.32c5.072 2.456 14.152 1.784 20.296-1.504 5.688-3.048 6.848-7.264 2.944-9.824Z"/><path fill="#fff" fill-opacity=".1" d="M99.864 66.77c4.584-2.896 4.992-6.688.736-8.752-1.92-.928-4.48-1.352-7.216-1.32 3.056-3.736 2.248-7.72-2.768-10.144-7.008-3.392-19.56-2.464-28.04 2.08a.06.06 0 0 0-.032.016c-5.152-2.168-13.824-1.44-19.752 1.736-6.136 3.288-7.008 7.944-1.936 10.392l35.768 17.32c5.072 2.456 14.152 1.784 20.296-1.504 5.688-3.048 6.848-7.264 2.944-9.824Z"/><path stroke="#fff" stroke-linecap="round" stroke-linejoin="round" stroke-width="2" d="M99.864 66.77c4.584-2.896 4.992-6.688.736-8.752-1.92-.928-4.48-1.352-7.216-1.32 3.056-3.736 2.248-7.72-2.768-10.144-7.008-3.392-19.56-2.464-28.04 2.08a.06.06 0 0 0-.032.016c-5.152-2.168-13.824-1.44-19.752 1.736-6.136 3.288-7.008 7.944-1.936 10.392l35.768 17.32c5.072 2.456 14.152 1.784 20.296-1.504 5.688-3.048 6.848-7.264 2.944-9.824Z"/><path fill="url(#b)" d="M92.648 30.066s36.824.272 37.096.208c2.704-.664 3.28-7.792 1.28-15.912-1.992-8.128-5.8-14.176-8.504-13.512-.272.064-32.784 17.368-32.784 17.368"/><path fill="#fff" d="M92.192 30.218c1.144-1.032 2.096-3.52 1.512-6.496-.64-3.248-3.088-5.184-4.408-5.464"/><path stroke="#fff" stroke-linecap="round" stroke-linejoin="round" stroke-width="2" d="M92.192 30.218c1.144-1.032 2.096-3.52 1.512-6.496-.64-3.248-3.088-5.184-4.408-5.464"/><path stroke="#fff" stroke-miterlimit="10" stroke-width="2" d="m88.97 18.066-2.461.61a.272.272 0 0 0-.199.33l2.964 11.957a.272.272 0 0 0 .33.199l2.46-.61a.272.272 0 0 0 .2-.33L89.3 18.264a.272.272 0 0 0-.33-.198Z"/><path fill="#0C77DB" stroke="#fff" stroke-linecap="round" stroke-linejoin="round" stroke-width="2" d="m88.856 29.274-1.064-4.312h-.008l-1.056-4.288a.275.275 0 0 0-.328-.2l-6.2 1.528a.275.275 0 0 0-.2.328l.232.952L64.16 27.25a.275.275 0 0 0-.2.328l.256 1.048-14.024 3.464a.275.275 0 0 0-.2.328l.888 3.56a.275.275 0 0 0 .328.2l14.024-3.464.256 1.048a.275.275 0 0 0 .328.2l16.072-3.968.232.952a.275.275 0 0 0 .328.2l6.2-1.528a.275.275 0 0 0 .2-.328l.008-.016Z"/><path fill="#0C77DB" stroke="#fff" stroke-miterlimit="10" stroke-width="2" d="m79.032 31.994-2.272-9.16a.275.275 0 0 0-.328-.2l-3.024.744a.275.275 0 0 0-.2.328l1.144 4.592 1.192 4.832 3.288-.808a.275.275 0 0 0 .2-.328Z"/><path fill="#0C77DB" stroke="#fff" stroke-linecap="round" stroke-linejoin="round" stroke-width="2" d="m68.272 33.906-1.92-7.744a.231.231 0 0 0-.28-.168l-2.56.632a.231.231 0 0 0-.168.28l1.976 7.968 2.776-.688c.12-.032.2-.152.168-.28h.008Z"/><path stroke="#fff" stroke-linecap="round" stroke-linejoin="round" stroke-width="2" d="M74.656 32.09v30.992M74.656 43.85 64.84 60.49M74.656 43.85l9.816 16.64"/><path fill="#fff" stroke="#fff" stroke-miterlimit="10" stroke-width="2" d="M76.864 43.802a2.207 2.207 0 1 1-4.415.001 2.207 2.207 0 0 1 4.415-.001Z"/></g><defs><linearGradient id="b" x1="89.6" x2="132" y1="25.61" y2="15.21" gradientUnits="userSpaceOnUse"><stop stop-color="#fff" stop-opacity=".3"/><stop offset="1" stop-color="#fff" stop-opacity=".2"/></linearGradient><clipPath id="a"><path fill="#fff" d="M0 0h160v91.2H0z"/></clipPath></defs></svg>