<svg xmlns="http://www.w3.org/2000/svg" width="160" height="92" fill="none"><g clip-path="url(#a)"><path fill="#0A76DB" d="m105.034 32.94-21.66-12.508L61.705 32.94v25.015l21.67 12.508 21.659-12.508V32.94Z"/><path fill="#fff" fill-opacity=".1" d="m105.034 32.94-21.66-12.508L61.705 32.94v25.015l21.67 12.508 21.659-12.508V32.94Z"/><path stroke="#fff" stroke-width="2" d="m105.034 32.94-21.66-12.508L61.705 32.94v25.015l21.67 12.508 21.659-12.508V32.94Z"/><g filter="url(#b)"><circle cx="83.315" cy="55.952" r="7.224" fill="#DDA5FF"/></g><path stroke="#fff" stroke-linecap="round" stroke-linejoin="round" stroke-width="2" d="M83.374 29.583 69.613 53.421h27.512L83.374 29.583Z"/><path stroke="#fff" stroke-linecap="round" stroke-linejoin="round" stroke-width="2" d="m61.705 32.94 21.67-3.357 21.659 3.356-7.909 20.482-13.75 17.042L69.613 53.42l-7.909-20.482ZM61.705 57.956l7.909-4.534M105.035 57.956l-7.909-4.534M83.374 20.432v9.152"/><path stroke="#fff" stroke-dasharray="1 1" stroke-linejoin="round" stroke-opacity=".7" d="M97.107 37.52H69.586l13.76 23.829 13.76-23.829Z"/><path stroke="#fff" stroke-dasharray="1 1" stroke-linejoin="round" stroke-opacity=".7" d="M83.374 20.432 97.107 37.52l7.927 20.435-21.688 3.394-21.641-3.394 7.88-20.435 13.79-17.088ZM61.705 32.94l7.88 4.58M83.374 70.463l-.028-9.114M105.035 32.94l-7.928 4.58"/><path stroke="#fff" stroke-linecap="round" stroke-linejoin="round" stroke-width="2" d="M67.388 78.679c-17.21-8.175-25.482-28.373-18.522-46.452 6.685-17.36 25.092-26.76 42.71-22.636"/><path fill="#fff" d="m89.582 12.8 6.862-1.702L91.541 6l-1.96 6.8Z"/><path stroke="#fff" stroke-linecap="round" stroke-linejoin="round" stroke-width="2" d="M98.644 12.03c17.493 8.05 25.943 28.417 18.93 46.647-6.686 17.36-25.093 26.759-42.702 22.627"/><path fill="#fff" d="m76.867 78.094-6.863 1.702 4.903 5.099 1.96-6.801Z"/><path stroke="#fff" stroke-miterlimit="10" stroke-width="2" d="M21.288 23.905a2.397 2.397 0 0 0 1.816-3.968 2.381 2.381 0 0 0-1.816-.832 2.397 2.397 0 0 0-2.4 2.4c0 1.328 1.072 2.4 2.4 2.4ZM39.608 31.801h-18.32V24.21M10.4 41.777a2.397 2.397 0 0 0 1.816-3.968 2.381 2.381 0 0 0-1.816-.832 2.397 2.397 0 0 0-2.4 2.4c0 1.328 1.072 2.4 2.4 2.4ZM39.608 39.377H12.8M27.688 50.161a2.397 2.397 0 0 0 1.816-3.968 2.381 2.381 0 0 0-1.816-.832 2.397 2.397 0 0 0-2.4 2.4c0 1.328 1.072 2.4 2.4 2.4ZM39.608 47.761h-9.52M24.4 68.657a2.397 2.397 0 0 0 1.816-3.968 2.381 2.381 0 0 0-1.816-.832 2.397 2.397 0 0 0-2.4 2.4c0 1.328 1.072 2.4 2.4 2.4Z"/><path stroke="#fff" stroke-miterlimit="10" stroke-width="2" d="M39.608 56.145h-15.12v7.712M150.392 62.681a2.397 2.397 0 0 0-1.816 3.968c.44.512 1.088.832 1.816.832 1.328 0 2.4-1.072 2.4-2.4 0-1.328-1.072-2.4-2.4-2.4ZM127.272 54.793h23.12v7.592M138.072 44.81a2.397 2.397 0 0 0-1.816 3.967c.44.512 1.088.832 1.816.832 1.328 0 2.4-1.072 2.4-2.4 0-1.328-1.072-2.4-2.4-2.4ZM127.272 47.21h8.4M150.392 36.425a2.397 2.397 0 0 0-1.816 3.968c.44.512 1.088.832 1.816.832 1.328 0 2.4-1.072 2.4-2.4 0-1.328-1.072-2.4-2.4-2.4ZM127.272 38.825h20.72M138.392 19.105a2.397 2.397 0 0 0-1.816 3.968c.44.512 1.088.832 1.816.832 1.328 0 2.4-1.072 2.4-2.4 0-1.328-1.072-2.4-2.4-2.4ZM127.272 30.441h11.12v-6.536"/></g><defs><clipPath id="a"><path fill="#fff" d="M0 0h160v91.2H0z"/></clipPath><filter id="b" width="76.265" height="76.265" x="45.183" y="17.819" color-interpolation-filters="sRGB" filterUnits="userSpaceOnUse"><feFlood flood-opacity="0" result="BackgroundImageFix"/><feBlend in="SourceGraphic" in2="BackgroundImageFix" result="shape"/><feGaussianBlur result="effect1_foregroundBlur_3820_9215" stdDeviation="15.454"/></filter></defs></svg>